<svg width="614.1" height="101.501" viewBox="0 0 614.1 101.501" xmlns="http://www.w3.org/2000/svg"><g id="svgGroup" stroke-linecap="round" fill-rule="evenodd" font-size="9pt" stroke="#000" stroke-width="0.25mm" fill="#000" style="stroke:#000;stroke-width:0.25mm;fill:#000"><path d="M 611 68.6 L 614.1 70.8 A 7.847 7.847 0 0 1 611.828 72.959 Q 610.231 73.935 608.176 73.996 A 9.303 9.303 0 0 1 607.9 74 Q 604.3 74 602.05 71.65 A 7.864 7.864 0 0 1 600.066 67.855 A 11.616 11.616 0 0 1 599.8 65.3 L 599.8 37.9 A 18.88 18.88 0 0 0 599.073 33.419 Q 597.289 27.529 591.335 26.582 A 15.505 15.505 0 0 0 588.9 26.4 A 15.696 15.696 0 0 0 576.146 32.55 A 25.226 25.226 0 0 0 573.3 37 L 573.3 72.9 L 569.1 72.9 L 569.1 39.3 A 21.147 21.147 0 0 0 568.782 35.516 Q 568.397 33.399 567.544 31.716 A 10.858 10.858 0 0 0 566.35 29.85 A 8.887 8.887 0 0 0 560.936 26.643 A 13.549 13.549 0 0 0 558.3 26.4 Q 553.2 26.4 548.8 29.45 A 18.171 18.171 0 0 0 545.171 32.721 A 14.818 14.818 0 0 0 542.7 36.9 L 542.7 72.9 L 538.5 72.9 L 538.5 37 Q 538.5 32.7 537.641 30.167 A 10.174 10.174 0 0 0 537.6 30.05 A 16.244 16.244 0 0 0 535.89 26.615 A 19.831 19.831 0 0 0 534.8 25.1 L 537.6 22.4 Q 539.7 24.4 541.05 27.05 Q 542.4 29.7 542.6 32.5 Q 547.232 23.417 556.814 22.584 A 22.923 22.923 0 0 1 558.8 22.5 Q 569.6 22.5 572.7 33 A 23.797 23.797 0 0 1 576.739 27.465 A 16.672 16.672 0 0 1 589 22.5 A 19.232 19.232 0 0 1 593.621 23.024 A 13.099 13.099 0 0 1 600 26.6 A 13.627 13.627 0 0 1 603.506 33.179 A 20.383 20.383 0 0 1 604 37.8 L 604 65.4 A 8.379 8.379 0 0 0 604.097 66.719 Q 604.327 68.156 605.1 69 A 3.646 3.646 0 0 0 607.561 70.181 A 5.031 5.031 0 0 0 608 70.2 A 3.463 3.463 0 0 0 610.237 69.373 A 5.306 5.306 0 0 0 611 68.6 Z M 209.7 58.1 L 213.5 56.6 Q 215.4 62.9 220.95 66.75 Q 226.5 70.6 233.6 70.6 A 21.537 21.537 0 0 0 239.834 69.721 A 19.125 19.125 0 0 0 243.2 68.35 Q 247.5 66.1 249.95 62.15 A 16.418 16.418 0 0 0 252.399 53.453 A 19.516 19.516 0 0 0 252.4 53.3 Q 252.4 49.5 250.65 46.65 Q 248.9 43.8 244.8 41.2 A 46.461 46.461 0 0 0 241.915 39.526 Q 238.622 37.757 233.969 35.782 A 153.84 153.84 0 0 0 233.3 35.5 A 95.331 95.331 0 0 1 229.526 33.842 Q 225.945 32.169 223.58 30.62 A 27.271 27.271 0 0 1 223.25 30.4 A 22.105 22.105 0 0 1 220.891 28.577 Q 219.735 27.544 218.919 26.46 A 11.18 11.18 0 0 1 218.15 25.3 Q 216.6 22.6 216.6 18.9 Q 216.6 14.4 219 10.75 A 16.207 16.207 0 0 1 224.616 5.549 A 19.602 19.602 0 0 1 225.65 5 A 20.446 20.446 0 0 1 233.183 2.974 A 24.514 24.514 0 0 1 235.1 2.9 Q 241.9 2.9 246.2 6.1 A 11.032 11.032 0 0 1 249.053 9.14 Q 250.477 11.447 250.5 14.406 A 12.513 12.513 0 0 1 250.5 14.5 A 9.533 9.533 0 0 1 250.037 17.533 A 7.965 7.965 0 0 1 247.9 20.85 Q 245.665 22.956 242.839 22.956 A 8.03 8.03 0 0 1 241.9 22.9 L 242.2 19.1 Q 243.333 19.226 244.209 18.777 A 3.361 3.361 0 0 0 245.15 18.05 A 4.22 4.22 0 0 0 246.151 16.1 A 6.232 6.232 0 0 0 246.3 14.7 Q 246.3 11.3 243.15 9.1 A 11.898 11.898 0 0 0 238.671 7.222 A 16.77 16.77 0 0 0 235.3 6.9 Q 231.5 6.9 228.15 8.55 Q 224.8 10.2 222.8 12.9 A 10.294 10.294 0 0 0 221.225 15.927 A 9.143 9.143 0 0 0 220.8 18.7 Q 220.8 21.355 221.806 23.213 A 6.977 6.977 0 0 0 222 23.55 A 8.144 8.144 0 0 0 223.137 24.975 Q 224.338 26.198 226.3 27.4 A 38.165 38.165 0 0 0 228.405 28.59 Q 231.211 30.072 235.5 31.9 A 116.682 116.682 0 0 1 240.216 33.996 Q 244.984 36.251 248.1 38.366 A 34.729 34.729 0 0 1 248.15 38.4 A 28.315 28.315 0 0 1 251.204 40.781 Q 252.678 42.114 253.723 43.515 A 14.581 14.581 0 0 1 254.7 45 Q 256.7 48.5 256.7 53.2 Q 256.7 59.4 253.7 64.25 Q 250.7 69.1 245.45 71.85 A 24.1 24.1 0 0 1 236.957 74.406 A 30.073 30.073 0 0 1 233.5 74.6 A 26.33 26.33 0 0 1 223.048 72.546 A 25.264 25.264 0 0 1 218.55 70.05 Q 212 65.5 209.7 58.1 Z M 201.1 68.6 L 204.2 70.8 A 7.847 7.847 0 0 1 201.928 72.959 Q 200.331 73.935 198.276 73.996 A 9.303 9.303 0 0 1 198 74 Q 194.4 74 192.15 71.65 A 7.864 7.864 0 0 1 190.166 67.855 A 11.616 11.616 0 0 1 189.9 65.3 L 189.9 38.2 Q 189.9 33.94 188.315 31.167 A 9.031 9.031 0 0 0 186.65 29.05 A 10.575 10.575 0 0 0 182.347 26.648 Q 180.166 26 177.4 26 A 18.033 18.033 0 0 0 172.715 26.583 A 14.36 14.36 0 0 0 168.15 28.7 Q 164.3 31.4 160.3 36.9 L 160.3 72.6 L 156.1 72.6 L 156.1 0 L 160.3 0 L 160.3 32.9 Q 163.6 27.4 167.95 24.8 A 18.206 18.206 0 0 1 174.653 22.455 A 23.812 23.812 0 0 1 178.2 22.2 Q 186.3 22.2 190.2 26.1 A 12.142 12.142 0 0 1 193.063 30.817 Q 193.727 32.745 193.966 35.11 A 27.807 27.807 0 0 1 194.1 37.9 L 194.1 65.4 A 8.379 8.379 0 0 0 194.197 66.719 Q 194.427 68.156 195.2 69 Q 196.3 70.2 198.1 70.2 A 3.463 3.463 0 0 0 200.337 69.373 A 5.306 5.306 0 0 0 201.1 68.6 Z M 25.3 8.5 L 8.4 8.5 A 4.266 4.266 0 0 0 6.763 8.808 A 4.015 4.015 0 0 0 5.65 9.5 Q 4.5 10.5 4.1 12 L 0 12 Q 0.1 9.3 2.4 7 A 9.044 9.044 0 0 1 4.634 5.336 A 7.438 7.438 0 0 1 8.1 4.5 L 53.4 4.5 L 53.4 8.5 L 29.5 8.5 L 29.5 72.9 L 25.3 72.9 L 25.3 8.5 Z M 143.2 36.2 L 139.3 36.2 A 10.576 10.576 0 0 0 138.265 32.152 A 9.909 9.909 0 0 0 135.4 28.7 Q 131.891 25.971 126.388 25.902 A 22.883 22.883 0 0 0 126.1 25.9 Q 120.8 25.9 116.6 28.95 Q 112.4 32 110 37.35 Q 107.6 42.7 107.6 49.4 A 28.552 28.552 0 0 0 108.203 55.447 Q 109.064 59.424 111.158 62.41 A 16.779 16.779 0 0 0 112.7 64.3 Q 117.8 69.7 126.7 69.7 Q 130.4 69.7 133.95 68.65 Q 136.335 67.945 139.42 66.539 A 80.463 80.463 0 0 0 142.6 65 L 144.5 68.1 Q 140.2 70.9 135.9 72.2 A 30.843 30.843 0 0 1 128.516 73.454 A 35.719 35.719 0 0 1 126.7 73.5 Q 116.97 73.5 111.082 68.621 A 19.027 19.027 0 0 1 109.5 67.15 A 20.799 20.799 0 0 1 104.496 58.123 Q 103.605 54.914 103.439 51.095 A 41.117 41.117 0 0 1 103.4 49.3 Q 103.4 41.2 106.2 35.05 Q 109 28.9 114.1 25.5 A 20.304 20.304 0 0 1 124.047 22.167 A 25.154 25.154 0 0 1 125.9 22.1 A 23.042 23.042 0 0 1 131.434 22.731 A 16.811 16.811 0 0 1 138.1 26 A 13.302 13.302 0 0 1 143.145 35.422 A 16.723 16.723 0 0 1 143.2 36.2 Z M 420 22.7 L 426.2 23.4 L 431.2 23.4 L 431.2 86.2 A 18.152 18.152 0 0 1 430.528 91.259 A 14.013 14.013 0 0 1 427.05 97.25 Q 422.9 101.5 416.3 101.5 A 14.367 14.367 0 0 1 410.561 100.379 A 13.694 13.694 0 0 1 406.1 97.25 A 14.487 14.487 0 0 1 402.064 88.09 A 19.354 19.354 0 0 1 402 86.5 A 17.735 17.735 0 0 1 402.779 81.1 A 13.68 13.68 0 0 1 408.3 73.8 Q 402.9 73.1 398.6 69.6 A 22.665 22.665 0 0 1 392.867 62.526 A 27.378 27.378 0 0 1 391.9 60.5 A 30.076 30.076 0 0 1 389.547 50.136 A 35.192 35.192 0 0 1 389.5 48.3 A 29.878 29.878 0 0 1 390.553 40.245 A 25.824 25.824 0 0 1 392.65 35 Q 395.8 29.1 401.35 25.75 A 23.434 23.434 0 0 1 412.943 22.413 A 27.917 27.917 0 0 1 413.8 22.4 A 79.053 79.053 0 0 1 416.247 22.435 Q 418.425 22.503 420 22.7 Z M 70.7 52.5 L 57.4 52.5 A 27.863 27.863 0 0 0 58.449 57.992 Q 59.445 61.257 61.257 63.707 A 15.904 15.904 0 0 0 62.8 65.5 A 15.237 15.237 0 0 0 70.409 69.581 A 22.69 22.69 0 0 0 75.4 70.1 A 27.129 27.129 0 0 0 80.479 69.642 A 22.529 22.529 0 0 0 83.65 68.8 Q 87.4 67.5 91.4 65 L 93.5 67.9 Q 85 73.9 75.4 73.9 Q 66.527 73.9 61.104 69.715 A 17.442 17.442 0 0 1 58.6 67.35 A 22.54 22.54 0 0 1 53.638 57.264 A 32.917 32.917 0 0 1 52.9 50.1 Q 52.9 43.2 55.3 36.9 Q 57.7 30.6 62.7 26.55 A 18.031 18.031 0 0 1 71.916 22.694 A 23.848 23.848 0 0 1 75 22.5 A 23.297 23.297 0 0 1 80.968 23.23 A 17.919 17.919 0 0 1 87.7 26.6 Q 92.8 30.7 92.8 37.5 A 13.837 13.837 0 0 1 91.855 42.714 Q 90.552 45.95 87.449 48.188 A 16.25 16.25 0 0 1 86.85 48.6 A 21.519 21.519 0 0 1 80.83 51.266 Q 78.085 52.037 74.814 52.326 A 46.749 46.749 0 0 1 70.7 52.5 Z M 269.6 59 L 269.6 10.7 L 273.8 10.7 L 273.8 23 L 289.9 23 L 289.9 27 L 273.8 27 L 273.8 59 A 23.246 23.246 0 0 0 273.99 62.078 Q 274.2 63.642 274.64 64.923 A 9.717 9.717 0 0 0 275.75 67.2 Q 277.618 69.978 281.827 70.095 A 13.477 13.477 0 0 0 282.2 70.1 A 10.088 10.088 0 0 0 290.172 66.373 A 15.332 15.332 0 0 0 291.6 64.4 L 294.6 66.6 Q 292.535 69.922 289.986 71.713 A 12.354 12.354 0 0 1 289.4 72.1 A 11.517 11.517 0 0 1 285.723 73.549 Q 284.098 73.9 282.2 73.9 A 15.127 15.127 0 0 1 276.836 73.026 Q 269.6 70.291 269.6 59 Z M 348.1 68.2 L 351.3 70.2 Q 350.3 71.9 348.55 72.8 Q 346.8 73.7 344.9 73.7 A 10.219 10.219 0 0 1 342.506 73.435 A 6.962 6.962 0 0 1 339.2 71.65 A 7.237 7.237 0 0 1 337.515 69.023 Q 337.106 67.958 336.915 66.656 A 15.123 15.123 0 0 1 336.8 65.6 A 14.455 14.455 0 0 1 332.056 70.672 A 18.282 18.282 0 0 1 330.4 71.65 A 19.84 19.84 0 0 1 323.01 73.792 A 24.316 24.316 0 0 1 320.7 73.9 A 22.881 22.881 0 0 1 315.097 73.246 A 17.426 17.426 0 0 1 309.05 70.45 A 20.758 20.758 0 0 1 302.099 61.607 A 24.732 24.732 0 0 1 301.95 61.25 A 31.721 31.721 0 0 1 299.786 52.339 A 38.793 38.793 0 0 1 299.6 48.5 Q 299.6 40.7 302.5 34.85 Q 305.4 29 310.85 25.75 A 22.724 22.724 0 0 1 318.873 22.886 A 30.263 30.263 0 0 1 323.8 22.5 Q 326.1 22.5 329.65 22.75 A 103.219 103.219 0 0 1 332.594 22.997 Q 333.934 23.131 335.124 23.29 A 58.115 58.115 0 0 1 335.9 23.4 L 340.9 23.4 L 340.9 65.2 Q 340.9 66.701 341.33 67.713 A 3.415 3.415 0 0 0 342 68.75 A 3.671 3.671 0 0 0 344.289 69.864 A 5.106 5.106 0 0 0 344.9 69.9 A 3.58 3.58 0 0 0 346.037 69.707 A 4.779 4.779 0 0 0 346.75 69.4 Q 347.512 68.999 347.92 68.469 A 2.357 2.357 0 0 0 348.1 68.2 Z M 525.9 68.2 L 529.1 70.2 Q 528.1 71.9 526.35 72.8 Q 524.6 73.7 522.7 73.7 A 10.219 10.219 0 0 1 520.306 73.435 A 6.962 6.962 0 0 1 517 71.65 A 7.237 7.237 0 0 1 515.315 69.023 Q 514.906 67.958 514.715 66.656 A 15.123 15.123 0 0 1 514.6 65.6 A 14.455 14.455 0 0 1 509.856 70.672 A 18.282 18.282 0 0 1 508.2 71.65 A 19.84 19.84 0 0 1 500.81 73.792 A 24.316 24.316 0 0 1 498.5 73.9 A 22.881 22.881 0 0 1 492.897 73.246 A 17.426 17.426 0 0 1 486.85 70.45 A 20.758 20.758 0 0 1 479.899 61.607 A 24.732 24.732 0 0 1 479.75 61.25 A 31.721 31.721 0 0 1 477.586 52.339 A 38.793 38.793 0 0 1 477.4 48.5 Q 477.4 40.7 480.3 34.85 Q 483.2 29 488.65 25.75 A 22.724 22.724 0 0 1 496.673 22.886 A 30.263 30.263 0 0 1 501.6 22.5 Q 503.9 22.5 507.45 22.75 A 103.219 103.219 0 0 1 510.394 22.997 Q 511.734 23.131 512.924 23.29 A 58.115 58.115 0 0 1 513.7 23.4 L 518.7 23.4 L 518.7 65.2 Q 518.7 66.701 519.13 67.713 A 3.415 3.415 0 0 0 519.8 68.75 A 3.671 3.671 0 0 0 522.089 69.864 A 5.106 5.106 0 0 0 522.7 69.9 A 3.58 3.58 0 0 0 523.837 69.707 A 4.779 4.779 0 0 0 524.55 69.4 Q 525.312 68.999 525.72 68.469 A 2.357 2.357 0 0 0 525.9 68.2 Z M 385.1 23.2 L 385.1 27 A 40.889 40.889 0 0 0 383.038 26.695 Q 381.413 26.5 380.1 26.5 A 18.909 18.909 0 0 0 376.211 26.878 Q 373.701 27.405 371.771 28.669 A 11.315 11.315 0 0 0 370.9 29.3 Q 369.4 30.6 367.7 32.65 Q 366 34.7 364.8 37 L 364.8 72.9 L 360.6 72.9 L 360.6 36.8 Q 360.6 32.5 359.741 29.967 A 10.174 10.174 0 0 0 359.7 29.85 A 16.244 16.244 0 0 0 357.99 26.415 A 19.831 19.831 0 0 0 356.9 24.9 L 359.7 22.2 Q 361.9 24.3 363.25 26.95 Q 364.6 29.6 364.8 32.5 Q 366.1 29.9 367.9 27.8 A 19.738 19.738 0 0 1 369.419 26.206 Q 370.232 25.448 371.045 24.894 A 10.938 10.938 0 0 1 371.5 24.6 A 13.562 13.562 0 0 1 375.831 22.902 Q 377.713 22.5 379.9 22.5 Q 381.049 22.5 383.814 22.971 A 98.403 98.403 0 0 1 385.1 23.2 Z M 472.8 23.2 L 472.8 27 A 40.889 40.889 0 0 0 470.738 26.695 Q 469.113 26.5 467.8 26.5 A 18.909 18.909 0 0 0 463.911 26.878 Q 461.401 27.405 459.471 28.669 A 11.315 11.315 0 0 0 458.6 29.3 Q 457.1 30.6 455.4 32.65 Q 453.7 34.7 452.5 37 L 452.5 72.9 L 448.3 72.9 L 448.3 36.8 Q 448.3 32.5 447.441 29.967 A 10.174 10.174 0 0 0 447.4 29.85 A 16.244 16.244 0 0 0 445.69 26.415 A 19.831 19.831 0 0 0 444.6 24.9 L 447.4 22.2 Q 449.6 24.3 450.95 26.95 Q 452.3 29.6 452.5 32.5 Q 453.8 29.9 455.6 27.8 A 19.738 19.738 0 0 1 457.119 26.206 Q 457.932 25.448 458.745 24.894 A 10.938 10.938 0 0 1 459.2 24.6 A 13.562 13.562 0 0 1 463.531 22.902 Q 465.413 22.5 467.6 22.5 Q 468.749 22.5 471.514 22.971 A 98.403 98.403 0 0 1 472.8 23.2 Z M 336.7 54.4 L 336.7 27 Q 335.327 27.086 331.011 26.804 A 251.941 251.941 0 0 1 329.5 26.7 L 323.4 26.5 A 23.209 23.209 0 0 0 317.395 27.233 A 16.086 16.086 0 0 0 308.85 32.7 A 22.157 22.157 0 0 0 304.222 43.133 A 30.42 30.42 0 0 0 303.8 48.3 Q 303.8 53.9 305.75 58.85 A 19.702 19.702 0 0 0 308.929 64.295 A 17.77 17.77 0 0 0 311.55 66.85 A 14.074 14.074 0 0 0 319.312 69.84 A 18.037 18.037 0 0 0 320.8 69.9 A 17.024 17.024 0 0 0 326.098 69.098 A 15.092 15.092 0 0 0 329.5 67.5 Q 333.3 65.1 335.2 61.3 A 14.076 14.076 0 0 0 336.523 56.975 A 18.106 18.106 0 0 0 336.7 54.4 Z M 514.5 54.4 L 514.5 27 Q 513.127 27.086 508.811 26.804 A 251.941 251.941 0 0 1 507.3 26.7 L 501.2 26.5 A 23.209 23.209 0 0 0 495.195 27.233 A 16.086 16.086 0 0 0 486.65 32.7 A 22.157 22.157 0 0 0 482.022 43.133 A 30.42 30.42 0 0 0 481.6 48.3 Q 481.6 53.9 483.55 58.85 A 19.702 19.702 0 0 0 486.729 64.295 A 17.77 17.77 0 0 0 489.35 66.85 A 14.074 14.074 0 0 0 497.112 69.84 A 18.037 18.037 0 0 0 498.6 69.9 A 17.024 17.024 0 0 0 503.898 69.098 A 15.092 15.092 0 0 0 507.3 67.5 Q 511.1 65.1 513 61.3 A 14.076 14.076 0 0 0 514.323 56.975 A 18.106 18.106 0 0 0 514.5 54.4 Z M 427 55.3 L 427 26.8 L 416.6 26.2 L 413.3 26.2 Q 407.8 26.2 403.35 29.1 A 20.244 20.244 0 0 0 396.675 36.35 A 24.073 24.073 0 0 0 396.3 37.05 A 23.655 23.655 0 0 0 393.763 46.391 A 28.356 28.356 0 0 0 393.7 48.3 A 26.978 26.978 0 0 0 394.757 55.943 A 24.292 24.292 0 0 0 395.95 59.15 A 22.141 22.141 0 0 0 398.938 64.026 A 18.682 18.682 0 0 0 402.05 67.05 Q 405.9 70 410.4 70 A 12.224 12.224 0 0 0 413.457 69.595 A 16.126 16.126 0 0 0 415.65 68.85 Q 418.4 67.7 420.8 65.7 A 22.581 22.581 0 0 0 423.969 62.398 A 19.4 19.4 0 0 0 425.3 60.45 Q 426.509 58.423 426.858 56.674 A 7.015 7.015 0 0 0 427 55.3 Z M 427 85.4 L 427 63.6 Q 425.25 66.824 421.717 69.794 A 32.826 32.826 0 0 1 421.1 70.3 A 10.098 10.098 0 0 1 420.332 70.925 Q 419.288 71.701 417.6 72.65 A 224.144 224.144 0 0 0 416.763 73.123 Q 415.22 74 414.685 74.345 A 6.468 6.468 0 0 0 414.6 74.4 Q 414.001 74.7 412.003 75.898 A 117.121 117.121 0 0 0 412 75.9 Q 408.8 78.1 407.4 80.55 A 10.493 10.493 0 0 0 406.165 84.132 A 13.716 13.716 0 0 0 406 86.3 Q 406 91.1 409.1 94.4 Q 412.2 97.7 416.8 97.7 Q 421.3 97.7 423.95 94.5 A 11.711 11.711 0 0 0 425.89 91.046 Q 426.447 89.534 426.741 87.706 A 25.242 25.242 0 0 0 427 85.4 Z M 57.2 48.7 L 70.7 48.7 A 38.909 38.909 0 0 0 75.84 48.381 Q 78.53 48.022 80.764 47.258 A 18.541 18.541 0 0 0 83.65 46 A 9.606 9.606 0 0 0 86.843 43.294 Q 88.6 40.915 88.6 37.4 A 11.587 11.587 0 0 0 88.083 33.848 A 9.049 9.049 0 0 0 84.6 29.15 Q 80.6 26.3 75.3 26.3 A 16.839 16.839 0 0 0 70.091 27.075 A 14.157 14.157 0 0 0 65.05 29.95 Q 60.9 33.6 58.95 38.85 A 29.952 29.952 0 0 0 57.637 43.408 Q 57.181 45.692 57.181 47.839 A 19.83 19.83 0 0 0 57.2 48.7 Z" vector-effect="non-scaling-stroke"/></g></svg>